<?xml version="1.0" encoding="utf-8"?>
<!-- Generator: Adobe Illustrator 16.0.0, SVG Export Plug-In . SVG Version: 6.00 Build 0)  -->
<!DOCTYPE svg PUBLIC "-//W3C//DTD SVG 1.1//EN" "http://www.w3.org/Graphics/SVG/1.1/DTD/svg11.dtd">
<svg version="1.1" id="Layer_1" xmlns="http://www.w3.org/2000/svg" xmlns:xlink="http://www.w3.org/1999/xlink" x="0px" y="0px"
	 width="400px" height="100px" viewBox="0 -0.001 1000 588.334" enable-background="new 0 -0.001 1000 588.334"
	 xml:space="preserve">
<path fill="#092E6D" d="M791.937,551.65c-2.958,1.4-6.696,1.703-11.685,1.703h-2.186v-23.398c0-4.01,0.471-5.039,7.01-5.039
	c6.088,0,15.592,4.309,15.592,13.922C800.668,543.734,798.332,548.429,791.937,551.65 M698.646,581.917
	c-15.572,0-23.459-15.918-23.459-29.141c0-17.527,11.251-29.275,23.498-29.275c13.655,0,24.004,9.637,24.004,29.758
	C722.689,567.464,712.314,581.917,698.646,581.917 M326.508,560.599l9.439-19.176h0.465l9.59,19.176H326.508z M193.282,551.878
	c-2.905,1.422-6.578,1.717-11.481,1.717h-2.146v-23.334c0-4.055,0.472-5.098,6.893-5.098c5.97,0,15.311,3.986,15.311,13.727
	C201.857,543.855,199.561,548.626,193.282,551.878 M70.419,580.478c-10.525,0-15.35-3.023-15.35-15.121v-52.141
	c0-3.383,0.216-6.516,1.315-6.791c1.531-0.539,4.386-0.943,9.433-0.943c18.649,0,42.561,8.15,42.561,37.342
	C108.378,566.863,89.297,580.478,70.419,580.478 M973.123,545.968l-3.457-0.994c-10.218-2.803-16.193-5.803-16.193-10.811
	c0-4.805,5.662-8.393,13.674-8.393c12.411,0,17.923,6.781,21.378,13.4l6.906-0.711c-1.715-6.805-2.821-11.709-3.437-15.617
	c-2.05-0.404-4.562-0.805-8.183-1.395c-4.562-0.813-9.595-1.215-14.458-1.215c-24.685,0-37.567,9.217-37.567,20.537
	c0,10.709,14.466,16.023,27.499,19.729l2.363,0.695c9.74,2.605,15.723,6.107,15.723,12.018c0,6.506-6.376,9.568-14.558,9.568
	c-15.402,0-24.593-10.779-27.879-16.578l-6.925,1.309c1.4,4.98,2.887,9.242,4.071,13.006l0.596,1.938
	c-1.185-0.236-2.102-0.459-2.108-0.459c-3.697-0.994-7.409-3.043-12.895-7.783c-9.76-8.41-19.971-18.727-29.566-28.244
	c6.493-4.902,14.249-10.002,22.595-15.215c8.052-5.109,12.844-5.242,21.673-5.838v-4.1H890.89v3.381l5.884,0.014
	c4.183,0.307,2.481,3.033,0.314,4.838c-8.98,7.602-18.419,15.021-29.718,23.23V536.65c0-10.799,1.236-11.844,11.455-12.453v-3.381
	h-48.288v3.381c10.827,0.609,12.063,1.654,12.063,12.453v34.154c0,3.887-0.17,6.729-0.845,8.666
	c-1.007,2.611-4.365,3.09-6.781,2.723c-3.285-0.51-5.878-2.965-8.07-5.289c-2.402-2.525-4.792-5.08-7.234-7.594
	c-4.482-4.635-10.275-12.252-12.455-15.055c11.533-2.912,20.102-8.115,20.102-16.928c0-5.906-4.674-10.777-10.912-13.283
	c-6.068-2.508-14.185-3.229-26.339-3.229h-49.526l1.002,3.381c10.446,0.609,10.683,1.654,10.683,12.453v14.242
	c-0.523-19.471-24.888-32.607-53.655-32.607c-22.865,0-35.969,6.797-44.544,15.738c5.242-10.283,8.731-16.811,9.216-17.588
	c7.392-12.094,9.354-11.949,21.536-13.057v-4.627h-52.006v4.627l8.281,0.551c9.353,0.557,10.007,1.689,7.173,9.523
	c-3.051,8.104-11.095,27.293-18.714,43.383l-0.426-0.748l-33.082-57.428h-15.219l-28.507,57.428l-0.438,0.748l-20.665-45.811
	c-2.618-5.631-1.963-6.416,6.094-7.096l6.959-0.551v-4.627H476.34v4.627c10.01,0.822,13.923,0.822,19.801,12.225l2.652,5.227
	h-32.415l-24.245,40.182l-27.734-40.182h-37.26v3.367c12.523,0.699,13.793,2.42,12.687,15.203l-1.741,20.498
	c-0.792,9.23-1.748,14.611-2.54,17.752c-0.274,1.074-0.444,2.383-1.374,2.592c-1.094,0.164-3.509-3.639-5.564-7.357
	c-5.786-10.355-12.332-22.328-18.891-34.396l-10.355-19.184l-10.519,1.42l-30.464,52.455c-0.354,0.607-0.695,1.16-1.021,1.682
	c-1.165,1.545-2.35,2.998-3.541,3.83c-3.41,2.441-12.215,3.051-18.407,3.051c-4.798,0-8.353-0.111-10.833-0.924
	c-2.781-0.916-3.096-3.678-3.096-8.941v-16.344h7.743c13.308,0,13.766,0.412,15.317,9.34h6.808v-23.961h-6.808
	c-1.552,7.715-2.01,8.107-15.317,8.107h-7.743V529.66c0-3.561,0.307-4.055,6.191-4.055h2.632c8.195,0,13.308,0.609,15.782,2.33
	c2.475,1.629,4.176,4.969,5.728,9.943l6.801-0.311c-0.772-7.607-1.532-15.02-1.696-16.738h-73.352v3.367
	c10.369,0.609,11.613,1.902,11.613,12.871v33.486c0,7.738-0.636,10.355-5.197,11.441c-1.604,0.361-3.318,0.395-4.91-0.078
	c-1.328-0.379-2.441-1.203-3.527-2.035c-2.442-2.035-5.813-5.48-11.01-10.859c-4.445-4.66-10.101-11.664-12.248-14.506
	c11.324-2.938,19.748-8.221,19.748-17.15c0-5.992-4.588-10.557-10.721-13.084c-5.964-2.547-13.93-3.453-25.876-3.453l-49.833,0.035
	c-3.527-4.244-7.619-7.559-11.717-10.096c-14.707-8.82-37.082-12.076-64.069-12.076H1.754v5.295
	c14.264,0.818,16.018,1.768,16.018,16.436v44.803c0,14.676-1.754,16.352-17.771,17.164v4.379h56.607
	c50.678,0,92.145-14.342,92.145-48.162c0-5.127-1.637-9.752-4.137-13.795h1.381c0,0,2.174-0.051,4.163,0.264
	c0.21,0.039,1.748,0.375,2.723,1.24c1.919,1.74,2.285,4.873,2.285,10.752v33.486c0,10.951-1.224,12.078-12.09,12.699v3.527h48.359
	v-3.527c-10.552-0.621-11.782-1.748-11.782-12.699v-12.188h2.003c2.899,0,5.047,1.531,6.429,3.666
	c5.419,8.059,11.18,17.254,20.193,21.678c6.113,2.986,12.757,3.07,19.428,3.07h65.582h17.496h18.001v-3.527h-4.419
	c-7.003-0.512-7.16-2.26-5.027-6.625l4.576-9.529h24.979l5.492,10.145c1.977,3.646,1.669,5.4-3.961,5.912l-4.574,0.098v3.527h28.119
	h19.717h19.427v-3.527c-10.296-0.523-13.778-1.846-14.413-5.604c-0.642-3.141-0.792-8.012-0.314-16.744l1.113-22.527h0.314
	l29.672,48.402h7.232l31.25-51.947h0.635l0.478,35.721c0.156,11.26-0.314,11.979-12.208,12.699v3.527h49.609v-3.213
	c-11.408-0.713-11.723-1.754-12.2-13.014l-1.591-34.006c-0.405-9.201,0.02-11.301,7.934-12.164l32.283,62.443h16.751l29.161-54.877
	h0.433l31.989,54.877h16.757c6.25-13.641,12.423-25.529,17.811-36.434c-0.111,0.949-0.183,1.898-0.183,2.842
	c0,18.418,20.814,34.611,52.915,34.611c30.149,0,53.158-14.557,53.682-35.582v18.539c0,10.813-1.244,11.848-12.319,12.449v3.574
	h50.161v-3.574c-10.756-0.602-11.999-1.637-11.999-12.449v-12.752h2.023c2.965,0,5.15,1.506,6.559,3.613
	c3.815,5.734,7.553,11.625,12.521,16.463c4.699,4.563,10.669,7.533,17.182,8.281c3.313,0.391,6.645,0.371,9.977,0.371h6.173h0.052
	h9.236h37.802v-3.527c-10.984-0.602-12.535-1.637-12.221-12.449v-16.012h0.308c11.291,10.904,27.413,25.582,33.298,31.988h31.157
	h7.594c4.183,0.643,10.31,1.408,15.749,1.42h-0.007c1.525,0.08,3.07,0.133,4.615,0.133c24.357,0,39.916-9.014,39.916-21.328
	C1000,555.283,987.582,550.08,973.123,545.968"/>
<path fill="#092E6D" d="M491.682,316.326c0.905,2.547,1.829,5.107,2.87,7.598c1.194,2.838,2.509,5.604,3.995,8.287
	c-10.639,5.719-19.879,12.174-26.914,17.621c-2.117-5.977,0.891-12.107,2.937-18.051c0.377-1.162,0.872-2.34,1.366-3.482
	c0.088,0,0.154,0,0.172,0c0.853-0.104,2.717-0.205,3.553-0.395c1.809-0.357,4.168-0.596,4.457-2.936
	c0.05-0.393,0.05-0.752,0.05-1.109c-0.016-2.939,2.101-14.447,2.854-18.648c1.895,4.354,3.995,9.289,4.643,11.082
	C491.664,316.31,491.682,316.31,491.682,316.326 M412.922,224.365c7.497,9.642,14.14,19.59,19.946,29.835
	c0-0.068,0-0.139,0.017-0.223c0.154-0.785,0.598-1.504,1.384-1.74c0.649-0.205,1.179,0.273,1.52,0.783
	c0.461,0.752,0.819,1.537,1.35,2.254c0.7,0.889,1.263,1.775,2.356,2.152c1.008,0.377,2.322,0.686,3.348,1.008
	c1.059,0.324,1.689,0.496,2.732,0.803c1.775,0.479,3.467,1.299,4.678,2.697c0.701,0.82,1.23,1.846,2.033,2.578
	c0.922,0.838,1.93,1.592,3.022,2.189c5.209,3.021,11.374,4.248,17.384,4.232c2.871-4.695,7.189-8.145,13.936-7.838
	c4.953,0.205,8.283,2.391,11.133,5.43c9.29-1.775,16.942-7.154,23.48-13.695c0.993-0.99,2.29-2.391,3.879-3.756l-3.553-4.68
	c-1.947-0.035-3.5,0.104-5.464,0.066c-1.503,0-3.485-0.322-4.852-0.989c-1.28-0.65-2.458-1.751-2.681-3.219
	c-0.103-0.787,0.139-1.605-0.033-2.357c-0.189-0.717-1.297-1.016-1.69-1.553c-0.308-0.48-0.19-1.195,0.085-1.648
	c0.016-0.069,0.545-0.736,0.631-0.682c-0.086-0.07-0.151-0.121-0.238-0.19c-0.648-0.495-1.383-0.947-1.127-1.929
	c0.188-0.77,1.468-1.068,0.838-2.023c-0.258-0.35-0.584-0.647-0.906-0.931c-1.078-0.854-1.777-1.622-1.896-2.47
	c-0.052-1.586,2.714-3.422,4.2-4.822c0.873-0.836,1.453-1.887,1.281-3.125c-0.188-1.512-0.547-2.938-0.599-4.465
	c-0.016-0.752,0-1.521,0.052-2.307c-1.125,1.938-3.621,2.102-3.621,2.102c2.203-3.152,1.879-4.057,1.864-6.662
	c-0.273-3.201,2.663-5.855,2.747-5.9c-2.493-1.289-3.893,1.546-3.996,1.471c0.462-7.678,7.889-6.576,7.805-6.679
	c-3.432-2.322-3.362-5.771-3.362-5.804c0.852,1.014,1.842,1.9,3.141,2.347c1.417,0.469,2.901,0.785,4.405,0.888
	c1.487,0.085,3.023-0.213,4.475-0.471c2.016-0.365,4.014-0.809,5.994-1.211c10.811-3.219,17.453,2.346,17.473,2.415
	c-1.401-2.116-0.874-3.654-0.84-3.706c0.447,1.223,1.349,1.734,2.358,2.852c1.022,1.102,4.765,3.477,7.393,5.363
	c2.615,1.88,3.707,6.233,3.791,6.233c4.271-0.547,5.415,2.938,5.586,3.561c-3.024-1.974-2.649,4.038-2.595,5.421
	c0.049,2.664,0.065,5.338-0.531,7.959c-1.383,5.908-5.738,11.16-10.999,14.096c-1.212,0.677-2.645,1.395-3.243,2.725
	c-0.119,0.23-0.103,0.565,0,0.967c0.564-0.316,1.229-0.53,1.776-0.685c1.383-0.351,4.935-1.204,5.412,0.854
	c0.294,1.119,0.855,3.92,1.264,4.424c0.377,0.459,1.469,1.346,2.562,2.645c0.667,0.65,1.281,1.367,1.864,2.119
	c1.551,1.979,2.901,4.133,4.044,6.385c1.656,3.211,2.939,6.592,3.93,10.045c1.383,4.643,2.271,9.494,2.833,14.342
	c0.444,3.688,0.719,7.43,0.804,11.17c0.033,1.674,0.015,3.379-0.016,5.055c9.085-10.111,16.819-21.295,22.884-33.506
	c11.148-22.464,16.599-47.44,16.786-72.5c0.715-95.999-72.904-181.787-190.018-161.09c-21.141,3.749-42.027,11.826-60.504,22.645
	c-19.809,11.596-37.57,27.196-50.634,46.135c-6.797,9.811-12.808,20.176-18.017,30.936c14.703,6.89,36.989,18.639,60.351,35.742
	C376.139,183.835,396.527,203.337,412.922,224.365 M447.281,278.33c-0.837,0.07-1.674,0.104-2.51,0.137
	c0.922,2.186,1.81,4.439,2.664,6.662c0.137-0.514,0.443-1.061,1.023-1.471c1.64-1.057,3.656-0.104,5.09,0.924
	c4.15,2.918,8.537,3.857,13.234,3.313c0.479-1.861,0.975-3.689,1.486-5.498c-2.187-0.633-4.354-1.299-6.507-1.982
	c-2.511-0.836-5.004-1.742-7.617-2.084C451.875,278.023,449.552,278.228,447.281,278.33 M500.084-0.001
	c-50.463,0-97.152,16.207-135.166,43.683c0.086,0.12,0.41,0.3,1.452-0.332c10.638-6.823,22.337-12.313,33.966-17.12
	c3.518-1.469,7.087-2.818,10.674-4.107c35.093-12.525,73.021-16.104,109.412-9.725c14.313,2.502,28.298,6.539,41.701,12.064
	c39.178,16.129,73.86,44.682,94.148,82.191c22.183,41.002,29.508,91.354,17.486,136.625c-7.087,26.684-20.748,51.395-38.748,72.245
	c-18.528,21.467-41.669,38.92-67.318,51.029c-26.297,12.396-55.21,19.021-84.292,19.193c-1.042,2.494-1.587,5.07-2.356,7.719
	c-0.205,0.719-0.274,1.469-0.547,2.15c-0.736,1.967-2.903,1.709-4.645,1.639c-0.787-0.031-2.203-0.17-3.006-0.27
	c-2.082,2.561-4.031,5.223-5.26,7.922l-0.153,0.273c-2.203,4.748-3.535,7.615-1.931,11.611c0.581,1.4,0.701,3.006,0.531,4.475
	c-0.139,1.467-0.514,2.988-1.691,3.963c-1.264,1.025-2.768,0.889-4.304,0.955c-3.108,0.104-6.063,0.205-8.897,1.537
	c0,0-0.034,0.035-0.051,0.035c-3.484,1.656-6.779,3.688-10.435,4.953c-3.501,1.195-7.565,1.791-10.878-0.172
	c-0.58-0.342-1.094-0.818-1.691-1.094c-0.529-0.273-1.127-0.273-1.69-0.359c-2.187-0.322-3.638-1.279-4.149-2.646
	c-0.324-0.955-0.137-1.945,0.359-2.834c0.547-0.922,1.485-0.957,2.477-0.82c0.717,0.104,1.416,0.273,2.133,0.256
	c1.281,0,2.563-0.324,3.74-0.803c2.34-1.023,4.355-2.646,6.217-4.355c1.69-1.588,3.928-3.482,5.925-5.172
	c1.606-1.35,3.126-2.631,4.082-3.52c1.674-1.605,4.815-4.711,7.667-9.803c0.752-1.365,2.203-5.02,3.383-8.811
	c-0.394-0.238-0.769-0.479-1.128-0.752c-1.4-1.059-3.278-2.184-2.646-4.166c0.41-1.248,0.989-2.424,1.503-3.619
	c-47.355-6.217-75.277-27.223-75.191-27.223c15.421,3.689,31.594,5.191,47.885,4.68c-0.324-0.307-0.632-0.684-0.819-1.127
	c-0.274-0.58-0.358-1.229-0.343-1.846c0.035-0.682,0.257-1.363,0.804-1.791c0.103-0.104,0.222-0.17,0.358-0.223
	c0.307-0.104,0.633-0.035,0.974,0c1.468,0.256,2.972,0.273,4.474,0.203c1.042-0.066,2.083-0.238,3.159-0.477
	c0.546-0.102,1.075-0.271,1.605-0.428c0.888-0.254,1.759-0.529,2.613-0.836c0.853-0.271,1.621-0.785,2.373-1.23
	c1.964-1.193,3.792-2.527,5.447-4.098c3.108-3.006,5.21-4.85,7.48-8.537c0.119-0.172,0.272-0.564,0.394-0.889
	c1.741-4.475,2.868-9.189,3.842-13.801c0.085-0.322,0.273-1.33,0.528-2.764c-0.103-0.07-0.188-0.104-0.272-0.172
	c-1.758-1.109-3.842-2.699-3.023-5.227c0.547-1.637,0.803-1.74,1.4-3.346c0.529-1.469,1.385-4.713,1.998-7.189
	c0.734-2.869,1.486-5.736,2.203-8.625c-1.041,0.121-2.065,0.342-3.057,0.77c-2.527,1.109-4.713,2.68-7.189,3.875
	c0.615,2.152,1.195,4.305,1.741,6.457c0.206,0.889,0.069,1.74-0.392,2.492c-0.461,0.787-1.213,1.332-2.118,1.537
	c-0.257,0.068-0.511,0.102-0.803,0.102h-0.118c-1.504-0.066-2.818-1.127-3.16-2.561c-0.666-2.664-1.417-5.33-2.186-7.99
	c-0.462-0.377-0.787-0.785-0.99-1.094c-2.903,0.049-3.689-1.998-3.877-2.871c-0.018,0-0.034-0.033-0.068-0.033
	c-3.092-1.314-2.664-4.32-2.664-4.32c-0.922-0.154-1.52-1.074-1.879-2.031c-1.006-2.512,1.246-4.406,3.279-5.158
	c0.256-0.084,0.563-0.154,0.957-0.223c-1.247-3.26-2.563-6.506-3.963-9.748c-2.596-0.686-2.869-2.156-2.817-2.119
	c-2.341,0.033-3.057-2.734-2.989-2.838c-3.021-0.238-3.277-4.164-3.277-4.164c-1.691-0.514-2.188-1.844-2.084-2.938
	c0.067-0.787,0.889-1.469,1.93-1.998c0,0,0.033,0,0.033-0.018c0.648-0.307,1.35-0.58,2.05-0.818
	c-6.353-12.09-13.935-23.764-22.679-34.991c-16.719-21.477-36.476-40.85-58.729-57.568c-19.639-14.763-39.755-26.844-59.018-35.477
	c-3.638,7.99-6.848,16.188-9.547,24.547c-7.137,22.141-10.86,45.307-11.116,68.547c-0.017,0.847-0.017,1.684-0.017,2.502
	c0,127.594,103.418,230.977,230.966,230.977c127.568,0,230.985-103.383,230.985-230.959C731.068,103.418,627.65-0.001,500.084-0.001
	 M525.459,284.75c-3.723,1.4-8.058,2.803-12.842,3.93c4.594,6.285,9.274,12.535,14.106,18.648l0.034,0.033
	c0.138,0.104,1.418,1.537,3.143,3.418c0.394-2.838,0.684-5.74,0.769-8.645c0.153-5.379-1.672-12.791-5.056-17.211
	C525.562,284.853,525.496,284.82,525.459,284.75"/>
</svg>
